<svg width="192" height="52" viewBox="0 0 192 52" fill="none" xmlns="http://www.w3.org/2000/svg">
<path opacity="0.5" fill-rule="evenodd" clip-rule="evenodd" d="M0.163696 19.1135L1.46039 14.1831L10.5927 8.92993V15.5117L0.163696 22.0437V19.1135Z" fill="#1C60DD"/>
<path opacity="0.7" fill-rule="evenodd" clip-rule="evenodd" d="M4.48566 19.2867L14.7694 12.9331V18.1509C14.7694 18.1509 14.6131 19.8731 13.8613 20.1938C13.3055 20.4192 4.48842 25.603 4.48842 25.603L4.48566 19.2867Z" fill="#1C60DD"/>
<path opacity="0.9" fill-rule="evenodd" clip-rule="evenodd" d="M10.0864 22.3691L19.2283 17.0159V22.2329C19.2283 22.2329 19.2283 23.6753 18.3202 24.1826C17.7342 24.4939 10.0884 28.9154 10.0884 28.9154L10.0864 22.3691Z" fill="#1C60DD"/>
<path opacity="0.5" fill-rule="evenodd" clip-rule="evenodd" d="M13.8752 7.06592L18.9016 3.84619V10.4246L13.88 13.4781L13.8752 7.06592Z" fill="#1C60DD"/>
<path opacity="0.7" fill-rule="evenodd" clip-rule="evenodd" d="M17.9681 10.9856L23.0192 8.02124V14.8311L17.9661 17.7471L17.9681 10.9856Z" fill="#1C60DD"/>
<path opacity="0.5" fill-rule="evenodd" clip-rule="evenodd" d="M21.8405 2.09132L25.2803 0V4.53674C25.2803 4.53674 25.2803 6.80648 24.3722 7.26071C24.1974 7.35265 21.859 8.70509 21.859 8.70509L21.8405 2.09132Z" fill="#1C60DD"/>
<path opacity="0.9" fill-rule="evenodd" clip-rule="evenodd" d="M21.9317 15.3762L25.3584 13.3333L25.2796 18.5462C25.2796 18.5462 25.3584 19.9211 24.3715 20.5892C24.144 20.7901 21.8104 21.9192 21.8515 21.9416C21.8926 21.9641 21.918 15.1917 21.9317 15.3762Z" fill="#1C60DD"/>
<path opacity="0.7" fill-rule="evenodd" clip-rule="evenodd" d="M25.9658 6.35159L28.7074 4.54834C28.7074 4.54834 28.7348 7.25324 28.7074 9.08577C28.6872 9.64241 28.5565 10.1896 28.3227 10.6958C28.089 11.2021 27.757 11.6575 27.3454 12.0358C27.3454 12.0358 25.9275 12.9129 25.9707 12.9375C26.0139 12.962 25.9658 6.35159 25.9658 6.35159Z" fill="#1C60DD"/>
<path fill-rule="evenodd" clip-rule="evenodd" d="M10.5929 8.92505C10.5504 9.01357 2.20899 13.1267 0.94451 14.5378C1.58943 13.9971 0.396228 15.0716 0.259155 16.6904L0.655976 31.903C0.655976 31.903 0.0185965 33.9315 3.15203 35.7212C5.3863 36.9973 18.3093 44.8915 19.8959 45.6332C21.4825 46.3748 21.8917 45.2028 21.8917 45.2028V30.4367C21.8574 30.3967 22.3653 28.1038 19.6458 26.3746C19.1235 25.9239 2.37827 18.3452 1.66687 15.959C0.902703 13.3964 10.5929 9.58765 10.5929 8.92505Z" fill="white"/>
<path fill-rule="evenodd" clip-rule="evenodd" d="M21.112 30.3039L21.9273 29.7175V45.4484C21.9273 45.4484 21.534 46.235 21.112 46.3099C21.0619 46.284 21.112 30.3039 21.112 30.3039Z" fill="#C0C9D7"/>
<path d="M1.09266 16.4764C1.20853 16.6592 1.34138 16.8309 1.48948 16.9892C1.32192 16.8053 1.18119 16.599 1.07142 16.3763C0.084507 13.8471 7.23962 11.0032 10.2209 9.10327C10.2209 9.10327 2.98423 12.6737 1.54979 13.9193C0.281889 15.0197 0.190737 15.6851 0.190737 15.6851L0.0379028 16.6146C0.0694292 16.1638 0.0797096 15.7613 0.190737 15.6851C0.17703 15.7634 1.08101 16.3585 1.09266 16.4764Z" fill="#1C60DD"/>
<path d="M18.8828 27.0001C18.2947 26.5064 10.7901 23.0967 5.60059 20.0132C5.909 20.2066 6.18382 20.3762 6.3997 20.5178L18.6922 45.0797C18.9513 45.2159 19.1466 45.3255 19.296 45.3951L21.1122 46.2967V30.5187C21.0896 30.5011 21.2931 28.3225 18.8828 27.0001Z" fill="#1C60DD"/>
<path opacity="0.3" d="M0.560477 33.9494C0.279535 33.3742 0.0904439 32.759 0 32.1257C0.0275888 32.7712 0.220506 33.3989 0.560477 33.9494Z" fill="url(#paint0_linear_0_757)"/>
<path d="M5.60072 20.0128C3.76397 18.9328 2.24249 17.8691 1.4886 16.9899C1.3407 16.8314 1.20807 16.6596 1.09246 16.4765C1.07875 16.3587 0.201501 15.6804 0.224803 15.5994C0.113776 15.6763 0.043184 16.1537 0.0116577 16.6072L0.0356452 32.1223C0.124741 33.2712 0.213837 33.3153 0.520877 33.9494C0.969783 34.6405 1.19184 34.9027 1.99233 35.6124C3.87158 36.753 15.5075 43.366 18.7088 45.0781L6.39983 20.5107L5.60072 20.0128Z" fill="#1C60DD"/>
<path opacity="0.2" d="M5.58016 20.0021C3.74341 18.9221 2.22193 17.8584 1.46804 16.9792C1.3267 16.8201 1.20094 16.6479 1.09246 16.4651C1.07875 16.3479 0.198074 15.6697 0.224803 15.5886C0.169975 15.6411 0.0678569 16.2485 0.0363305 16.7014L0.0116577 32.1681C0.0562057 33.1344 0.246048 33.4019 0.525674 33.9781C0.92592 34.6406 1.44062 35.1357 2.02112 35.6015C3.90105 36.7421 15.4877 43.3554 18.6889 45.0673L6.37928 20.4999L5.58016 20.0021Z" fill="url(#paint1_linear_0_757)"/>
<path fill-rule="evenodd" clip-rule="evenodd" d="M18.4658 33.3923L15.9115 31.8259C15.4578 31.5644 15.0205 31.7334 15.2446 32.1958V36.4105C15.3536 36.5665 15.5736 37.0708 15.4715 37.3257C15.1055 37.3079 16.9244 38.8237 17.9525 39.3952C18.252 39.5619 18.8105 39.6315 18.7674 38.9443V33.9376C18.7686 33.8288 18.7412 33.7211 18.6879 33.6259C18.6351 33.5304 18.5587 33.4499 18.4658 33.3923Z" fill="#B0B5BE"/>
<path fill-rule="evenodd" clip-rule="evenodd" d="M18.3564 33.645C17.9589 33.1533 16.6307 32.3982 15.7294 31.752C15.5026 31.5872 15.1078 31.7044 15.1126 31.9773C15.1695 35.1664 15.1811 36.6339 15.3669 37.2584C15.5039 37.7352 17.0083 38.7368 17.8636 39.3013C18.1179 39.4724 18.4612 39.5132 18.4722 39.2041C18.5202 37.8631 18.4722 34.7524 18.4722 33.957C18.4683 33.8425 18.4269 33.7326 18.3543 33.6438L18.3564 33.645Z" fill="white"/>
<path d="M30.1082 23.1768C30.1082 27.9905 33.7902 31.3534 38.3291 31.3534C41.6871 31.3534 44.5818 29.695 45.809 26.5626H42.6366C41.7796 28.2671 40.2514 29.0732 38.3291 29.0732C35.1334 29.0732 32.8176 26.793 32.8176 23.1768C32.8176 19.5607 35.1334 17.3035 38.3291 17.3035C40.2514 17.3035 41.7796 18.1096 42.6366 19.8141H45.809C44.5818 16.6816 41.6871 15.0002 38.3291 15.0002C33.7902 15.0002 30.1082 18.386 30.1082 23.1768Z" fill="#0D111D"/>
<path d="M60.3622 24.8582C60.3622 20.8735 57.4908 18.3169 53.8549 18.3169C50.2193 18.3169 47.3476 20.8735 47.3476 24.8582C47.3476 28.8427 50.1034 31.4225 53.7392 31.4225C57.398 31.4225 60.3622 28.8427 60.3622 24.8582ZM50.034 24.8582C50.034 21.9791 51.8172 20.5971 53.8088 20.5971C55.777 20.5971 57.6529 21.9791 57.6529 24.8582C57.6529 27.7373 55.7076 29.1423 53.7392 29.1423C51.7476 29.1423 50.034 27.7373 50.034 24.8582Z" fill="#0D111D"/>
<path d="M62.2772 31.2151H64.9172V18.5241H62.2772V31.2151ZM63.6204 16.8427C64.5467 16.8427 65.2878 16.1057 65.2878 15.1614C65.2878 14.217 64.5467 13.48 63.6204 13.48C62.671 13.48 61.9301 14.217 61.9301 15.1614C61.9301 16.1057 62.671 16.8427 63.6204 16.8427Z" fill="#0D111D"/>
<path d="M76.7432 31.2152H79.36V23.7295C79.36 20.1825 77.1138 18.3169 74.1263 18.3169C72.5981 18.3169 71.1853 18.9388 70.3286 19.9752V18.5242H67.6886V31.2152H70.3286V24.1211C70.3286 21.7948 71.6023 20.5971 73.5475 20.5971C75.4696 20.5971 76.7432 21.7948 76.7432 24.1211V31.2152Z" fill="#0D111D"/>
<path d="M84.6729 22.5779V17.3496H87.5907C89.6517 17.3496 90.5779 18.3169 90.5779 19.9753C90.5779 21.5876 89.6517 22.5779 87.5907 22.5779H84.6729ZM93.2873 19.9753C93.2873 17.3726 91.4116 15.2075 87.5907 15.2075H82.0328V31.2152H84.6729V24.7199H87.5907C91.7822 24.7199 93.2873 22.2555 93.2873 19.9753Z" fill="#0D111D"/>
<path d="M94.2306 24.8121C94.2306 28.7275 96.8936 31.4225 100.205 31.4225C102.336 31.4225 103.864 30.4091 104.675 29.3263V31.2152H107.338V18.5242H104.675V20.3668C103.887 19.3303 102.405 18.3169 100.252 18.3169C96.8936 18.3169 94.2306 20.8965 94.2306 24.8121ZM104.675 24.8582C104.675 27.5991 102.799 29.1423 100.807 29.1423C98.8388 29.1423 96.94 27.553 96.94 24.8121C96.94 22.0712 98.8388 20.5971 100.807 20.5971C102.799 20.5971 104.675 22.1403 104.675 24.8582Z" fill="#0D111D"/>
<path d="M115.136 28.198L111.546 18.5242H108.605L113.63 31.0079L111.037 37.1805H113.769L121.597 18.5242H118.864L115.136 28.198Z" fill="#0D111D"/>
<path d="M140.98 31.2152H143.597V23.7295C143.597 20.1825 141.328 18.3169 138.34 18.3169C136.488 18.3169 134.681 19.2843 133.894 20.8274C133.014 19.1691 131.324 18.3169 129.309 18.3169C127.781 18.3169 126.391 18.9388 125.534 19.9752V18.5242H122.894V31.2152H125.534V24.1211C125.534 21.7948 126.808 20.5971 128.753 20.5971C130.675 20.5971 131.949 21.7948 131.949 24.1211V31.2152H134.566V24.1211C134.566 21.7948 135.839 20.5971 137.785 20.5971C139.707 20.5971 140.98 21.7948 140.98 24.1211V31.2152Z" fill="#0D111D"/>
<path d="M151.634 20.528C153.603 20.528 155.154 21.7718 155.2 23.7295H148.137C148.415 21.7257 149.851 20.528 151.634 20.528ZM157.609 27.4377H154.761C154.274 28.4282 153.371 29.2114 151.75 29.2114C149.805 29.2114 148.3 27.9446 148.114 25.8484H157.864C157.933 25.411 157.956 24.9964 157.956 24.5587C157.956 20.8274 155.386 18.3169 151.75 18.3169C147.975 18.3169 145.382 20.8735 145.382 24.8582C145.382 28.8427 148.091 31.4225 151.75 31.4225C154.876 31.4225 156.891 29.6488 157.609 27.4377Z" fill="#0D111D"/>
<path d="M168.914 31.2152H171.531V23.7295C171.531 20.1825 169.285 18.3169 166.297 18.3169C164.769 18.3169 163.356 18.9388 162.5 19.9752V18.5242H159.86V31.2152H162.5V24.1211C162.5 21.7948 163.773 20.5971 165.718 20.5971C167.641 20.5971 168.914 21.7948 168.914 24.1211V31.2152Z" fill="#0D111D"/>
<path d="M174.621 27.6911C174.621 30.2708 176.033 31.2151 178.303 31.2151H180.387V29.027H178.766C177.654 29.027 177.284 28.6354 177.284 27.6911V20.6661H180.387V18.5241H177.284V15.3687H174.621V18.5241H173.115V20.6661H174.621V27.6911Z" fill="#0D111D"/>
<path d="M191.643 27.6682C191.504 23.0846 184.302 24.5126 184.302 21.956C184.302 21.1038 185.043 20.528 186.456 20.528C187.892 20.528 188.748 21.2881 188.841 22.3936H191.481C191.342 19.8601 189.443 18.3169 186.548 18.3169C183.538 18.3169 181.639 19.9522 181.639 21.9791C181.639 26.6316 189.05 25.2037 189.05 27.6912C189.05 28.5664 188.239 29.2114 186.711 29.2114C185.252 29.2114 184.256 28.3591 184.163 27.3225H181.431C181.546 29.6259 183.7 31.4225 186.757 31.4225C189.767 31.4225 191.643 29.8102 191.643 27.6682Z" fill="#0D111D"/>
<path d="M186.209 41.0121C186.237 40.2807 186.476 39.7168 186.927 39.3203C187.378 38.9238 187.99 38.7256 188.762 38.7256C189.275 38.7256 189.713 38.8144 190.075 38.9922C190.444 39.1699 190.721 39.4126 190.905 39.7202C191.097 40.0278 191.192 40.373 191.192 40.7558C191.192 41.2069 191.08 41.5761 190.854 41.8632C190.628 42.1434 190.365 42.3348 190.065 42.4374V42.4784C190.454 42.6083 190.762 42.8236 190.987 43.1243C191.213 43.4251 191.326 43.8113 191.326 44.283C191.326 44.7068 191.227 45.0828 191.028 45.4109C190.837 45.7322 190.553 45.9851 190.177 46.1696C189.808 46.3542 189.367 46.4465 188.855 46.4465C188.034 46.4465 187.378 46.2448 186.886 45.8415C186.401 45.4382 186.144 44.8298 186.117 44.0164H187.819C187.826 44.3172 187.911 44.5564 188.075 44.7341C188.239 44.905 188.479 44.9905 188.793 44.9905C189.06 44.9905 189.265 44.9153 189.408 44.7649C189.559 44.6077 189.634 44.4026 189.634 44.1497C189.634 43.8216 189.528 43.5858 189.316 43.4422C189.111 43.2918 188.779 43.2166 188.321 43.2166H187.993V41.7914H188.321C188.67 41.7914 188.95 41.7333 189.162 41.6171C189.381 41.494 189.49 41.2787 189.49 40.9711C189.49 40.725 189.422 40.5336 189.285 40.3969C189.149 40.2602 188.961 40.1918 188.721 40.1918C188.462 40.1918 188.267 40.2704 188.137 40.4277C188.014 40.5849 187.942 40.7797 187.922 41.0121H186.209Z" fill="#0D111D"/>
<path d="M182.108 40.5302V38.8999H184.948V46.385H183.123V40.5302H182.108Z" fill="#0D111D"/>
<path d="M175.604 42.5399C175.604 41.3642 175.829 40.4379 176.281 39.7612C176.739 39.0845 177.473 38.7461 178.485 38.7461C179.497 38.7461 180.228 39.0845 180.679 39.7612C181.137 40.4379 181.366 41.3642 181.366 42.5399C181.366 43.7293 181.137 44.6624 180.679 45.3391C180.228 46.0158 179.497 46.3542 178.485 46.3542C177.473 46.3542 176.739 46.0158 176.281 45.3391C175.829 44.6624 175.604 43.7293 175.604 42.5399ZM179.644 42.5399C179.644 41.8495 179.568 41.3197 179.418 40.9506C179.268 40.5746 178.957 40.3867 178.485 40.3867C178.013 40.3867 177.702 40.5746 177.552 40.9506C177.402 41.3197 177.326 41.8495 177.326 42.5399C177.326 43.0047 177.354 43.3909 177.408 43.6985C177.463 43.9993 177.572 44.2454 177.737 44.4368C177.907 44.6214 178.157 44.7136 178.485 44.7136C178.813 44.7136 179.059 44.6214 179.223 44.4368C179.394 44.2454 179.507 43.9993 179.562 43.6985C179.616 43.3909 179.644 43.0047 179.644 42.5399Z" fill="#0D111D"/>
<path d="M169.685 44.9802C169.917 44.7957 170.023 44.7102 170.002 44.7239C170.672 44.1702 171.199 43.7156 171.581 43.3602C171.971 43.0047 172.299 42.6322 172.566 42.2425C172.832 41.8529 172.966 41.4735 172.966 41.1044C172.966 40.8241 172.901 40.6054 172.771 40.4482C172.641 40.291 172.446 40.2123 172.186 40.2123C171.927 40.2123 171.722 40.3115 171.571 40.5097C171.428 40.7011 171.356 40.9745 171.356 41.33H169.664C169.678 40.7489 169.801 40.2636 170.033 39.874C170.272 39.4843 170.583 39.1972 170.966 39.0127C171.356 38.8281 171.787 38.7358 172.258 38.7358C173.072 38.7358 173.683 38.9443 174.094 39.3613C174.511 39.7783 174.719 40.3217 174.719 40.9916C174.719 41.723 174.47 42.4032 173.971 43.0321C173.472 43.6541 172.836 44.2625 172.063 44.8572H174.832V46.2824H169.685V44.9802Z" fill="#0D111D"/>
<path d="M166.399 43.3603C166.399 43.538 166.389 43.726 166.369 43.9242H161.878C161.912 44.4779 162.1 44.912 162.441 45.2264C162.79 45.534 163.21 45.6878 163.703 45.6878C164.106 45.6878 164.441 45.5955 164.707 45.411C164.981 45.2196 165.172 44.9666 165.282 44.6522H166.287C166.136 45.1922 165.835 45.6331 165.384 45.9749C164.933 46.3098 164.373 46.4773 163.703 46.4773C163.169 46.4773 162.691 46.3577 162.267 46.1184C161.85 45.8792 161.522 45.5408 161.283 45.1033C161.044 44.659 160.924 44.1464 160.924 43.5653C160.924 42.9843 161.04 42.475 161.273 42.0375C161.505 41.6001 161.83 41.2651 162.247 41.0327C162.67 40.7935 163.156 40.6738 163.703 40.6738C164.236 40.6738 164.707 40.79 165.118 41.0224C165.528 41.2549 165.842 41.5761 166.061 41.9863C166.287 42.3896 166.399 42.8476 166.399 43.3603ZM165.436 43.1654C165.436 42.81 165.357 42.5058 165.2 42.2529C165.042 41.9931 164.827 41.7983 164.554 41.6684C164.287 41.5317 163.99 41.4633 163.662 41.4633C163.19 41.4633 162.787 41.6137 162.452 41.9145C162.124 42.2153 161.936 42.6323 161.888 43.1654H165.436Z" fill="#3C4670"/>
<path d="M154.696 43.5653C154.696 42.9843 154.812 42.4784 155.044 42.0478C155.277 41.6103 155.598 41.272 156.008 41.0327C156.425 40.7935 156.9 40.6738 157.433 40.6738C158.124 40.6738 158.691 40.8413 159.136 41.1763C159.587 41.5112 159.884 41.976 160.028 42.5707H159.023C158.927 42.2289 158.739 41.9589 158.459 41.7607C158.185 41.5625 157.844 41.4633 157.433 41.4633C156.9 41.4633 156.47 41.6479 156.141 42.017C155.813 42.3793 155.649 42.8954 155.649 43.5653C155.649 44.2421 155.813 44.765 156.141 45.1341C156.47 45.5032 156.9 45.6878 157.433 45.6878C157.844 45.6878 158.185 45.5921 158.459 45.4007C158.732 45.2093 158.92 44.9359 159.023 44.5804H160.028C159.877 45.1546 159.576 45.616 159.125 45.9646C158.674 46.3064 158.11 46.4773 157.433 46.4773C156.9 46.4773 156.425 46.3577 156.008 46.1184C155.598 45.8792 155.277 45.5408 155.044 45.1033C154.812 44.6659 154.696 44.1532 154.696 43.5653Z" fill="#3C4670"/>
<path d="M151.223 40.6636C151.907 40.6636 152.461 40.8721 152.884 41.289C153.308 41.6992 153.52 42.2939 153.52 43.0732V46.385H152.597V43.2064C152.597 42.6459 152.457 42.2187 152.177 41.9248C151.897 41.624 151.514 41.4736 151.029 41.4736C150.536 41.4736 150.143 41.6274 149.849 41.935C149.562 42.2426 149.419 42.6904 149.419 43.2782V46.385H148.486V40.7661H149.419V41.5659C149.603 41.2788 149.853 41.0566 150.167 40.8994C150.489 40.7422 150.841 40.6636 151.223 40.6636Z" fill="#3C4670"/>
<path d="M146.444 39.8535C146.267 39.8535 146.116 39.7919 145.993 39.6689C145.87 39.5459 145.809 39.3955 145.809 39.2177C145.809 39.04 145.87 38.8896 145.993 38.7666C146.116 38.6436 146.267 38.582 146.444 38.582C146.615 38.582 146.759 38.6436 146.875 38.7666C146.998 38.8896 147.06 39.04 147.06 39.2177C147.06 39.3955 146.998 39.5459 146.875 39.6689C146.759 39.7919 146.615 39.8535 146.444 39.8535ZM146.895 40.766V46.385H145.962V40.766H146.895Z" fill="#3C4670"/>
<path d="M142.21 46.4568C141.739 46.4568 141.315 46.3747 140.939 46.2107C140.57 46.0398 140.279 45.8074 140.067 45.5134C139.856 45.2127 139.746 44.8675 139.739 44.4778H140.734C140.768 44.8128 140.905 45.0965 141.144 45.3289C141.39 45.5544 141.746 45.6672 142.21 45.6672C142.655 45.6672 143.003 45.5579 143.256 45.3391C143.516 45.1135 143.646 44.8264 143.646 44.4778C143.646 44.2044 143.571 43.9822 143.42 43.8113C143.27 43.6405 143.082 43.5106 142.856 43.4217C142.631 43.3329 142.327 43.2372 141.944 43.1346C141.472 43.0116 141.093 42.8885 140.806 42.7655C140.525 42.6424 140.283 42.451 140.078 42.1913C139.88 41.9247 139.78 41.5692 139.78 41.1249C139.78 40.7353 139.88 40.3901 140.078 40.0893C140.276 39.7885 140.553 39.5561 140.908 39.3921C141.271 39.228 141.684 39.146 142.149 39.146C142.819 39.146 143.366 39.3135 143.79 39.6484C144.22 39.9834 144.463 40.4277 144.518 40.9814H143.492C143.458 40.7079 143.314 40.4687 143.062 40.2636C142.809 40.0517 142.474 39.9458 142.057 39.9458C141.667 39.9458 141.349 40.0483 141.103 40.2534C140.857 40.4516 140.734 40.7319 140.734 41.0942C140.734 41.3539 140.806 41.5658 140.949 41.7299C141.1 41.8939 141.281 42.0204 141.493 42.1093C141.711 42.1913 142.016 42.287 142.405 42.3964C142.877 42.5262 143.256 42.6561 143.543 42.786C143.831 42.909 144.077 43.1039 144.282 43.3704C144.487 43.6302 144.589 43.9857 144.589 44.4368C144.589 44.7854 144.497 45.1135 144.312 45.4212C144.128 45.7288 143.854 45.9783 143.492 46.1697C143.13 46.3611 142.703 46.4568 142.21 46.4568Z" fill="#3C4670"/>
<defs>
<linearGradient id="paint0_linear_0_757" x1="8.4428" y1="23.6985" x2="0.4284" y2="32.9814" gradientUnits="userSpaceOnUse">
<stop/>
<stop offset="1" stop-color="#1C60DD" stop-opacity="0"/>
</linearGradient>
<linearGradient id="paint1_linear_0_757" x1="12.3254" y1="27.0491" x2="4.31136" y2="36.3339" gradientUnits="userSpaceOnUse">
<stop offset="0.19"/>
<stop offset="1" stop-color="#1C60DD" stop-opacity="0"/>
</linearGradient>
</defs>
</svg>
