<svg id="Layer_1" data-name="Layer 1" xmlns="http://www.w3.org/2000/svg" viewBox="0 0 82 19"><defs><style>.cls-1{fill:#181c32;}</style></defs><path class="cls-1" d="M39.18,11.11v3a1.94,1.94,0,0,1,0,.24v4.36a5.22,5.22,0,0,0,2.2-1.34,5.16,5.16,0,0,0,1.58-3.8v-8a5.17,5.17,0,0,0-1.58-3.8A5.16,5.16,0,0,0,37.57.11H29.16A4.8,4.8,0,0,0,25.43,1.9L22.82,5.1l2.23,2.74,3.17-3.92a1.62,1.62,0,0,1,1.26-.6h8.09a1.52,1.52,0,0,1,1.13.48,1.56,1.56,0,0,1,.48,1.14v6.17Z"/><path class="cls-1" d="M25.41,17.11a4.84,4.84,0,0,0,3.75,1.78h4.9a.16.16,0,0,0,.1-.05.17.17,0,0,0,.05-.12V15.83a.17.17,0,0,0-.05-.12.16.16,0,0,0-.1-.05H29.48a1.63,1.63,0,0,1-1.26-.58L17.52,1.9A4.85,4.85,0,0,0,13.77.11H6.22a.16.16,0,0,0-.1.05.14.14,0,0,0,0,.1V.11h-.7A5.16,5.16,0,0,0,1.58,1.68,5.19,5.19,0,0,0,0,5.49v8a5.16,5.16,0,0,0,1.58,3.8,5.16,5.16,0,0,0,3.79,1.57h.7v-.17a.17.17,0,0,0,0,.12.16.16,0,0,0,.1.05h7.55a4.84,4.84,0,0,0,3.75-1.78l2.58-3.18-2.24-2.75-3.16,3.9a1.63,1.63,0,0,1-1.25.58H6.22a.16.16,0,0,0-.1.05.17.17,0,0,0,0,.12v-.15h-.7a1.52,1.52,0,0,1-1.13-.48,1.55,1.55,0,0,1-.48-1.13V4.94A1.56,1.56,0,0,1,4.24,3.8a1.51,1.51,0,0,1,1.13-.47h.7V3.17a.16.16,0,0,0,0,.11.14.14,0,0,0,.1,0h7.25a1.59,1.59,0,0,1,1.23.6Z"/><path class="cls-1" d="M47.9,6.21l0,0a.05.05,0,0,1,0,0h7.59a1.91,1.91,0,0,1,1.91,1.91v.67a1.91,1.91,0,0,1-1.91,1.91H49.24v2.14s0,0,0,0a.05.05,0,0,1,0,0H48a.07.07,0,0,1-.06-.06Zm7.65,3.3a.52.52,0,0,0,.4-.18.54.54,0,0,0,.17-.4v-1A.57.57,0,0,0,56,7.47a.54.54,0,0,0-.4-.17H49.24V9.51Z"/><path class="cls-1" d="M59.46,8.07a1.91,1.91,0,0,1,1.92-1.91h5.73a1.87,1.87,0,0,1,1.35.56A1.84,1.84,0,0,1,69,8.07v4.72a.07.07,0,0,1-.06.06H67.74l0,0a.05.05,0,0,1,0,0V10.65H60.8v2.14a.05.05,0,0,1,0,0l0,0H59.52l0,0a.05.05,0,0,1,0,0Zm8.22,1.44V7.88a.53.53,0,0,0-.17-.41.56.56,0,0,0-.4-.17H61.38a.55.55,0,0,0-.41.17.57.57,0,0,0-.17.41V9.51Z"/><path class="cls-1" d="M79.63,6.21s0,0,0,0l0,0h1.22l0,0,0,0V8.09a1.31,1.31,0,0,1-.82,1.23L76.67,10.8v2a.05.05,0,0,1,0,0l0,0H75.39l0,0s0,0,0,0v-2L71.84,9.32a1.31,1.31,0,0,1-.59-.5A1.28,1.28,0,0,1,71,8.09V6.21a0,0,0,0,1,0,0l0,0h1.22l0,0,0,0V7.83a.55.55,0,0,0,.35.52L76,9.73l3.28-1.38a.57.57,0,0,0,.35-.52Z"/></svg>